<svg width="41" height="41" viewBox="0 0 41 41" fill="none" xmlns="http://www.w3.org/2000/svg">
<g clip-path="url(#clip0_1_294)">
<path d="M20.105 0C9.0017 0 0 9.0017 0 20.105C0 31.2083 9.0017 40.21 20.105 40.21C31.2083 40.21 40.21 31.2083 40.21 20.105C40.21 9.0017 31.2083 0 20.105 0Z" fill="#7D26C3"/>
<path d="M22.3044 18.2856L30.9112 8.28101H28.8717L21.3984 16.9679L15.4296 8.28101H8.54529L17.5713 21.4171L8.54529 31.9084H10.5849L18.4768 22.7348L24.7803 31.9084H31.6647L22.3039 18.2856H22.3044ZM11.3198 9.81643H14.4526L28.8726 30.4428H25.7398L11.3198 9.81643Z" fill="#0F1327"/>
</g>
<defs>
<clipPath id="clip0_1_294">
<rect width="40.21" height="40.21" fill="white"/>
</clipPath>
</defs>
</svg>
